<svg width="52" height="44" viewBox="0 0 52 44" fill="none" xmlns="http://www.w3.org/2000/svg">
<circle cx="26" cy="22" r="21" fill="#438E39"/>
<path d="M20.3574 15.0326L30.5443 13.0317L34.3643 19.2165L31.3629 22.0361C29.9804 20.4353 26.421 19.4894 24.8142 19.2165C27.0698 20.0169 30.3624 24.9466 31.7267 27.3114C36.7982 20.1839 41.4609 15.0789 43.4804 13.0909C43.6195 12.9331 43.7353 12.8199 43.8236 12.7588C43.7196 12.8575 43.605 12.9683 43.4804 13.0909C42.1285 14.6249 38.5795 20.368 36.8201 23.3095C35.9469 24.692 36.6988 26.5535 37.1839 27.3114C34.6372 29.3731 29.7439 33.278 30.5443 32.4049C31.3447 31.5317 24.0865 20.4596 20.3574 15.0326Z" fill="white"/>
<path d="M11.3535 25.4926V11.9404L28.7328 12.288C29.2094 12.2371 29.5038 12.2367 29.5443 12.3042L28.7328 12.288C26.6439 12.5113 21.0542 13.705 17.9932 14.3962C22.7867 19.7151 26.7062 26.8661 28.4949 30.6618C28.7565 31.1239 28.9317 31.5009 28.9986 31.7684C28.8566 31.4431 28.6882 31.072 28.4949 30.6618C26.7641 27.6041 21.2541 20.8215 18.357 17.3977C17.5566 17.1794 14.3247 18.3982 12.8088 19.0348C17.2748 20.9972 23.2406 27.4116 26.2001 31.0071C26.5908 31.3742 26.8157 31.641 26.8157 31.7684C26.6288 31.5327 26.423 31.2779 26.2001 31.0071C24.3591 29.2772 18.8365 25.3196 15.8103 23.2187L13.1726 24.4921C15.8498 25.257 20.8628 28.8697 23.8583 31.2212C24.5096 31.6117 24.9238 31.9283 24.9966 32.1322C24.6658 31.8616 24.2823 31.554 23.8583 31.2212C21.2562 29.6612 14.8696 26.9233 11.3535 25.4926Z" fill="white"/>
</svg>
